<?xml version="1.0" encoding="UTF-8"?>
<svg fill="#FFFFFF" width="100pt" height="100pt" version="1.1" viewBox="0 0 100 100" xmlns="http://www.w3.org/2000/svg">
 <g>
  <path d="m83.168 21.141c0.90625 5.5859-2.8867 10.852-8.4727 11.758-5.5898 0.91016-10.855-2.8867-11.762-8.4727-0.90625-5.5898 2.8867-10.855 8.4766-11.762 5.5859-0.90625 10.852 2.8867 11.758 8.4766"/>
  <path d="m14.199 69.449c2.3008 0.56641 3.75 1.8516 4.6328 2.6172 0.14844 0.14844 0.30078 0.28516 0.43359 0.39844h0.066406l0.082031-0.066406 0.23438-0.16797 0.18359-0.16797c1.332-1.1484 3.3984-2.9336 7.1484-2.9336 0.31641 0 0.61719 0.015625 0.91797 0.035156l13.285-13.266 6.5156 6.5664-6.7852 6.7656c0.44922-0.066407 0.91797-0.10156 1.3984-0.10156 3.3164 0 5.3672 1.3828 6.9336 2.7344l0.25 0.23438c0.10156 0.082032 0.31641 0.26562 0.43359 0.36719h0.070312c0.066406-0.035156 0.31641-0.25 0.51562-0.41797 1.168-1.0156 3.332-2.918 7.1328-2.918 0.81641 0 1.5508 0.082032 2.2148 0.23438l0.96484-0.96484c1.3984-1.3828 2.168-3.2344 2.168-5.1992 0-1.9648-0.76562-3.8008-2.1484-5.1836l-5.7148-5.7344 6.1992-6.1992v6.2656c0 0.93359 0.75 1.668 1.668 1.668h21.582c1.4492 0 2.8164-0.55078 3.832-1.5664 1.1172-1.1328 1.6836-2.6172 1.5664-4.1992-0.16797-2.8516-2.6172-5.082-5.582-5.082h-10.898v-4.3828c0-0.81641-0.13281-1.6328-0.36719-2.418h-0.082031c-7.4844 0-13.582-6.1016-13.582-13.582 0-0.23438 0-0.46484 0.015625-0.69922v-0.015626l-5.6016-5.25c-1.6016-1.5-3.6992-2.332-5.8984-2.332l-17.402-0.003906c-1.5352 0-2.9648 0.60156-4.0508 1.6836-1.0664 1.0664-1.668 2.5156-1.668 4.0352 0 3.1484 2.5664 5.7148 5.7148 5.7148h15.867l2.918 2.8984-37.414 37.418c-0.86719 0.86719-1.4844 1.9492-1.75 3.1328 0.46875-0.15234 0.96875-0.23438 1.4688-0.23438 0.91406 0 1.75 0.10156 2.5312 0.31641z"/>
  <path d="m11.668 75.801c0.33203 0 0.60156 0.035157 0.88281 0.11719 0.69922 0.16797 1.168 0.55078 1.8672 1.168 1 0.86719 2.3516 2.0508 4.8984 2.0508 2.168 0 3.4648-0.85156 4.3672-1.6016 0.035156-0.035156 0.066406-0.050781 0.10156-0.066406l0.46484-0.41797c0.86719-0.75 1.4492-1.25 2.7344-1.25 1.3008 0 1.8672 0.5 2.7344 1.2656 1.0664 0.91797 2.3984 2.0664 4.9336 2.0664s3.8672-1.1484 4.9336-2.0664l0.43359-0.38281c0.68359-0.56641 1.25-0.88281 2.3008-0.88281 1.2148 0 1.8008 0.44922 2.582 1.1172l0.18359 0.16797c0.11719 0.10156 0.23437 0.21484 0.36719 0.31641 0.25 0.19922 0.53516 0.41797 0.83203 0.63281 0.14844 0.11719 0.31641 0.21484 0.5 0.30078 0.31641 0.18359 0.66797 0.35156 1.0508 0.46484 0.30078 0.10156 0.61719 0.18359 0.98437 0.23438 0.13281 0.035156 0.28516 0.050782 0.43359 0.066406h0.082032c0.19922 0.035157 0.41797 0.035157 0.64844 0.035157 2.5352 0 3.8672-1.1484 4.9336-2.0664 0.86719-0.76562 1.4336-1.2656 2.7344-1.2656 1.3008 0 1.8672 0.5 2.7344 1.2656 1.0664 0.91797 2.3984 2.0664 4.9336 2.0664 2.5352 0 3.8672-1.1484 4.9336-2.0664 0.86719-0.76562 1.4336-1.2656 2.7344-1.2656s1.8672 0.5 2.7344 1.2656c1.0664 0.91797 2.3984 2.0664 4.9336 2.0664s3.8672-1.1484 4.9336-2.0664c0.33203-0.30078 0.66797-0.58203 0.98438-0.78516 0.38281-0.23438 0.88281-0.48438 1.7656-0.48438 0.91797 0 1.668-0.73438 1.668-1.668 0-0.91797-0.75-1.668-1.668-1.668-1.3164 0-2.4648 0.33203-3.5508 1-0.53516 0.33203-0.98437 0.73438-1.3828 1.082-0.88281 0.75-1.4492 1.25-2.75 1.25s-1.8672-0.5-2.7344-1.25c-1.0664-0.93359-2.3984-2.082-4.9336-2.082-2.5352 0-3.8672 1.1484-4.9336 2.082-0.86719 0.75-1.4336 1.25-2.7344 1.25-1.3008 0-1.8672-0.5-2.7344-1.25-1.0664-0.93359-2.3984-2.082-4.9336-2.082s-3.8672 1.1484-4.9336 2.082c-0.86719 0.75-1.4336 1.25-2.7344 1.25h-0.18359c-0.066406-0.015625-0.13281-0.015625-0.19922-0.015625-1.0156-0.082031-1.5508-0.53516-2.332-1.2148l-0.18359-0.16797c-1.082-0.93359-2.418-1.9336-4.7656-1.9336-1.8984 0-3.1172 0.63281-4.0508 1.3516-0.13281 0.10156-0.26562 0.19922-0.38281 0.30078l-0.5 0.43359c-0.86719 0.75-1.4492 1.25-2.7344 1.25-1.3008 0-1.8672-0.5-2.7344-1.25-1.0664-0.93359-2.3984-2.082-4.9336-2.082s-3.8516 1.1484-4.918 2.0664l-0.35156 0.31641c-0.050782 0.035157-0.10156 0.066407-0.14844 0.10156-0.61719 0.53516-1.1992 0.85156-2.25 0.85156-1.3008 0-1.8516-0.48438-2.6992-1.2344-0.73438-0.64844-1.7344-1.5352-3.25-1.8828-0.51563-0.15234-1.0664-0.22266-1.6992-0.22266-0.91797 0-1.668 0.75-1.668 1.668 0 0.93359 0.75 1.668 1.668 1.668z"/>
  <path d="m11.668 84.133c1.3008 0 1.8672 0.5 2.7344 1.2656 1.0664 0.91797 2.3828 2.0664 4.918 2.0664 2.168 0 3.4648-0.85156 4.3672-1.6016 0.035156-0.035156 0.066406-0.050781 0.10156-0.066406l0.46484-0.41797c0.86719-0.75 1.4492-1.25 2.7344-1.25 1.3008 0 1.8672 0.5 2.7344 1.2656 1.0664 0.91797 2.3984 2.0664 4.9336 2.0664s3.8672-1.1484 4.9336-2.0664c0.86719-0.76562 1.4336-1.2656 2.7344-1.2656 1.2148 0 1.8008 0.44922 2.5664 1.1172l0.16797 0.13281c1.0664 0.93359 2.3828 2.082 4.9336 2.082 2.5352 0 3.8672-1.1484 4.9336-2.0664 0.86719-0.76562 1.4336-1.2656 2.7344-1.2656 1.3008 0 1.8672 0.5 2.7344 1.2656 1.0664 0.91797 2.3984 2.0664 4.9336 2.0664s3.8672-1.1484 4.9336-2.0664c0.86719-0.76562 1.4336-1.2656 2.7344-1.2656 1.3008 0 1.8672 0.5 2.7344 1.2656 1.0664 0.91797 2.3984 2.0664 4.9336 2.0664 2.5352 0 3.8672-1.1484 4.9336-2.0664 0.33203-0.30078 0.66797-0.58203 0.98438-0.78516 0.38281-0.23438 0.88281-0.48438 1.7656-0.48438 0.91797 0 1.668-0.73438 1.668-1.668 0-0.91797-0.75-1.668-1.668-1.668-1.3164 0-2.4648 0.33203-3.5508 1-0.53516 0.33203-0.98438 0.73438-1.3828 1.082-0.88281 0.75-1.4492 1.25-2.75 1.25-1.3008 0-1.8672-0.5-2.7344-1.25-1.0664-0.93359-2.3984-2.082-4.9336-2.082s-3.8672 1.1484-4.9336 2.082c-0.86719 0.75-1.4336 1.25-2.7344 1.25s-1.8672-0.5-2.7344-1.25c-1.0664-0.93359-2.3984-2.082-4.9336-2.082s-3.8672 1.1484-4.9336 2.082c-0.86719 0.75-1.4336 1.25-2.7344 1.25-1.3008 0-1.8672-0.5-2.7344-1.25l-0.16797-0.14844c-1.082-0.93359-2.418-1.9336-4.7656-1.9336-2.5352 0-3.8672 1.1484-4.9336 2.082-0.86719 0.75-1.4336 1.25-2.7344 1.25s-1.8672-0.5-2.7344-1.25c-1.0664-0.93359-2.3984-2.082-4.9336-2.082-2.5352 0-3.8516 1.1484-4.918 2.0664l-0.35156 0.31641c-0.050781 0.035156-0.10156 0.066406-0.14844 0.10156-0.61719 0.53516-1.1992 0.85156-2.25 0.85156-1.2852 0-1.8516-0.5-2.7148-1.25-1.0703-0.92578-2.3906-2.0742-4.9375-2.0742-0.91797 0-1.668 0.75-1.668 1.668 0 0.92969 0.75 1.6641 1.668 1.6641z"/>
 </g>
</svg>
