<?xml version="1.0" encoding="UTF-8"?>
<svg fill="#E39240" width="100pt" height="100pt" version="1.1" viewBox="0 0 100 100" xmlns="http://www.w3.org/2000/svg">
 <path d="m79.453 27.148c-0.58984-7.0547-3.6875-13.664-8.7344-18.633-5.043-4.9688-11.699-7.9648-18.766-8.4492-8.1641-0.58594-16.199 2.2773-22.156 7.8867-5.957 5.6055-9.3359 13.414-9.3438 21.594-0.011719 4.2266 0.89844 8.4102 2.6719 12.25l23.773 56.203c0.54687 1.2305 1.7656 2.0195 3.1133 2.0195 1.3438 0 2.5664-0.78906 3.1133-2.0195l23.715-56.137c1.7852-3.8594 2.707-8.0625 2.707-12.316 0-0.83203 0-1.6133-0.09375-2.3984zm-29.453-11.238c5.5156 0 10.488 3.3203 12.598 8.418 2.1133 5.0938 0.94531 10.961-2.957 14.859-3.8984 3.8984-9.7617 5.0664-14.859 2.957-5.0938-2.1133-8.418-7.082-8.418-12.598 0-7.5312 6.1055-13.637 13.637-13.637z"/>
</svg>
