<?xml version="1.0" encoding="UTF-8"?>
<svg fill="#FFFFFF" width="100pt" height="100pt" version="1.1" viewBox="0 0 100 100" xmlns="http://www.w3.org/2000/svg">
 <g>
  <path d="m37 56c0.89844 1.1016 2.3008 2.3008 3.8984 2.3008 1.6016 0 3-1.1992 3.8984-2.3008 0.69922-0.80078 1.3984-1.3984 2.3008-1.8008 2.8984-1.3008 6.1016-0.5 8.1016 1.8008 0.89844 1.1016 2.3008 2.3008 3.8984 2.3008 1.6016 0 3-1.3008 3.8984-2.3008 0.69922-0.80078 1.6016-1.5 2.6016-1.8984-4.1016-8.3984-12.801-23.398-25.898-30.898-1.5-0.89844-3.3008 0.39844-3 2.1016 0.69922 3.8984 0.80078 8.3008 0.39844 12.898 0 0.60156 0.30078 1.1016 0.80078 1.3984l4.6016 2c0.5 0.19922 0.5 0.89844-0.10156 1.1016l-5.3984 1.6016c-0.5 0.10156-0.80078 0.5-0.89844 1-0.5 2.8984-1.1992 5.8008-2.1016 8.6992 1.1992 0.39453 2.1992 1.0977 3 1.9961z"/>
  <path d="m4.5 67.102c3.3008 0 6.3984-1.3008 9.1016-3.8008 2.6992 2.5 5.8008 3.8008 9.1016 3.8008s6.3984-1.3984 9.1016-3.8008c2.6992 2.5 5.8008 3.8008 9.1016 3.8008s6.3984-1.3984 9.1016-3.8008c2.6992 2.5 5.8008 3.8008 9.1016 3.8008 3.1992 0 6.3984-1.3984 9.1016-3.8008 2.6992 2.5 5.8008 3.8008 9.1016 3.8008h0.10156c3.1992 0 6.3984-1.3984 9.1016-3.8008 2.6992 2.5 5.8008 3.8008 9.1016 3.8008 1.1016 0 2-0.89844 2-2 0-1.1016-0.89844-2-2-2-3.3984 0-6-2.1992-7.6016-4-0.80078-0.89844-2.3008-0.89844-3.1016 0-1.5 1.8008-4.1016 4-7.6016 4h-0.10156c-3.3984 0-6-2.1992-7.6016-4-0.80078-0.89844-2.3008-0.89844-3.1016 0-1.5 1.8008-4.1016 4-7.6016 4s-6-2.1992-7.6016-4c-0.39844-0.5-0.89844-0.69922-1.5-0.69922-0.60156 0-1.1992 0.30078-1.5 0.69922-1.5 1.8008-4.1016 4-7.6016 4-3.3984 0-6-2.1992-7.6016-4-0.80078-0.89844-2.3008-0.89844-3.1016 0-1.5 1.8008-4.1016 4-7.6016 4-3.3984 0-6-2.1992-7.6016-4-0.39844-0.5-0.89844-0.69922-1.5-0.69922s-1.1992 0.30078-1.5 0.69922c-1.6016 1.8008-4.1016 4-7.6016 4-1.1016 0-2 0.89844-2 2 0.30469 1.0977 1.2031 2 2.3047 2z"/>
  <path d="m95.5 73c-3.3984 0-6-2.1992-7.6016-4-0.80078-0.89844-2.3008-0.89844-3.1016 0-1.5 1.8008-4.1016 4-7.6016 4h-0.10156c-3.3984 0-6-2.1992-7.6016-4-0.80078-0.89844-2.3008-0.89844-3.1016 0-1.5 1.8008-4.1016 4-7.6016 4s-6-2.1992-7.6016-4c-0.39844-0.5-0.89844-0.69922-1.5-0.69922s-1.1992 0.30078-1.5 0.69922c-1.5 1.8008-4.1016 4-7.6016 4-3.3984 0-6-2.1992-7.6016-4-0.80078-0.89844-2.3008-0.89844-3.1016 0-1.5 1.8008-4.1016 4-7.6016 4-3.3984 0-6-2.1992-7.6016-4-0.39844-0.5-0.89844-0.69922-1.5-0.69922-0.60156 0-1.1992 0.30078-1.5 0.69922-1.6016 1.8008-4.1016 4-7.6016 4-1.1016 0-2 0.89844-2 2s0.89844 2 2 2c3.3008 0 6.3984-1.3008 9.1016-3.8008 2.6992 2.5 5.8008 3.8008 9.1016 3.8008s6.3984-1.3984 9.1016-3.8008c2.6992 2.5 5.8008 3.8008 9.1016 3.8008s6.3984-1.3984 9.1016-3.8008c2.6992 2.5 5.8008 3.8008 9.1016 3.8008 3.1992 0 6.3984-1.3984 9.1016-3.8008 2.6992 2.5 5.8008 3.8008 9.1016 3.8008h0.10156c3.1992 0 6.3984-1.3984 9.1016-3.8008 2.6992 2.5 5.8008 3.8008 9.1016 3.8008 1.1016 0 2-0.89844 2-2 0.30469-1.1016-0.59375-2-1.6953-2z"/>
 </g>
</svg>
